<?xml version="1.0" encoding="iso-8859-1"?>
<!-- Generator: Adobe Illustrator 19.0.0, SVG Export Plug-In . SVG Version: 6.00 Build 0)  -->
<svg version="1.1" id="Capa_1" xmlns="http://www.w3.org/2000/svg" xmlns:xlink="http://www.w3.org/1999/xlink" x="0px" y="0px"
	 viewBox="0 0 383.891 383.891" style="enable-background:new 0 0 383.891 383.891;" xml:space="preserve">
<path style="fill:#E4E7E7;" d="M266.119,90.291c-32,0-45.6,15.6-68,15.6c-22.8,0-40.4-15.6-68.4-15.6c-27.2,0-56.4,17.2-74.8,46.4
	c-26,41.2-21.6,118.8,20.4,184.8c15.2,23.6,35.2,50,61.6,50.4h0.4c22.8,0,29.6-15.6,61.2-15.6h0.4c30.8,0,37.2,15.6,60,15.6h0.4
	c26.4-0.4,47.6-29.6,62.4-53.2c10.8-16.8,14.8-25.6,23.2-44.4c-60.8-23.6-70.4-112.4-10.4-146.4
	C316.119,104.291,290.119,90.291,266.119,90.291L266.119,90.291z"/>
<path style="fill:#FFFFFF;" d="M80.119,329.091c1.6,2.4,3.2,4.8,4.8,6.8l0,0c-20-53.6-18-107.2,2-139.2
	c18.4-29.2,47.6-46.4,74.8-46.4c1.2,0,2.4,0,3.6,0c35.6-0.4,71.6,6.8,103.6,22.8c8.4,4,17.6,7.6,26.4,9.2c2-10.4,6-20.4,12-29.6
	c0.4-1.2,0.8-1.6,1.2-1.6c1.6-2,3.2-4,4.8-6c0.4-0.4,0.4-0.4,0.4-0.8c2-2,3.6-4,5.6-6l0,0c2-1.6,4-3.2,6-4.8
	c0.4-0.4,1.2-0.8,1.6-1.2c2.4-1.6,4.4-3.2,6.8-4.4c-3.6-4.4-7.2-8.4-11.2-12.4c-8-7.6-16.4-13.2-25.2-17.6c-1.6-0.8-2.8-1.2-4.4-2
	c-9.2-3.6-18.4-5.6-27.6-5.6c-18,0-30.4,4.8-41.6,9.2c-8.8,3.2-16.8,6.4-26.8,6.4c-22.8,0-40.4-15.6-68.4-15.6
	c-5.2,0-10.4,0.8-15.6,1.6c-8.4,2-17.2,5.6-25.2,10.4c-6.4,4-12.8,8.8-18.4,14.4c-5.6,5.6-11.2,12.4-15.6,19.6
	c-11.2,18-16.8,42.8-16,70.8c1.2,32,10.4,67.6,29.2,101.2c2.4,4.4,4.8,8.4,7.6,12.4c1.6,2.4,2.8,4.4,4.4,6.8
	C79.719,328.291,79.719,328.691,80.119,329.091z"/>
<g>
	<path style="fill:#444B54;" d="M136.919,383.891h-0.4c-32-0.4-55.2-30-71.6-56c-42-66.4-50.8-149.2-20.4-197.6
		c20.4-32,52.8-52,84.8-52c16.8,0,30,4.8,41.6,9.2c9.6,3.6,18,6.4,26.8,6.4c8,0,14.8-2.8,23.2-6c11.2-4.4,25.2-9.6,44.8-9.6
		c28.4,0,57.6,15.6,78,42c4,5.2,3.2,12.8-2,16.8s-12.8,3.2-16.8-2c-16-20.4-38-32.8-58.8-32.8c-15.2,0-26,4-36,8
		c-9.6,3.6-19.6,7.6-32,7.6c-13.2,0-24-4-34.8-8s-20.8-7.6-33.2-7.6c-24,0-48.8,15.6-64.8,40.8c-21.6,34-21.6,105.6,20.4,171.6
		c13.2,20.8,30.8,44.8,51.6,44.8h0.4c8,0,13.2-2.4,20.4-5.6c9.6-4.4,21.2-9.6,40.8-10h0.4c19.2,0,30.8,5.6,40,9.6
		c7.2,3.2,12,5.6,20,5.6h0.4c19.6-0.4,38.4-25.6,52.4-47.6c8-12.8,12.4-20.4,17.6-32.4c-28.8-16.4-47.2-48.8-47.2-84.4
		c0-6.8,5.2-12,12-12s12,5.6,12,12c0,24.8,13.2,55.6,43.2,67.2c3.2,1.2,5.6,3.6,6.8,6.4c1.2,3.2,1.2,6.4,0,9.2
		c-8.4,19.6-12.8,28.8-24,46.4c-18.4,28.8-41.6,58.4-72.4,58.8h-0.8c-13.2,0-22-4.4-30-8c-8-4-16-7.6-30-7.6h-0.4
		c-14.4,0-22.4,3.6-30.8,7.6C159.319,379.891,150.119,383.891,136.919,383.891z"/>
	<path style="fill:#444B54;" d="M205.319,69.891c-4,0-7.6-2-10-5.2c-3.6-5.6-2.4-12.8,3.2-16.8c12.4-8.4,24.8-24,32.4-40.8
		c2.8-6,10-8.8,16-6s8.8,10,6,16c-9.6,21.2-24.8,40-41.2,50.8C209.719,69.091,207.719,69.891,205.319,69.891z"/>
</g>
<g>
</g>
<g>
</g>
<g>
</g>
<g>
</g>
<g>
</g>
<g>
</g>
<g>
</g>
<g>
</g>
<g>
</g>
<g>
</g>
<g>
</g>
<g>
</g>
<g>
</g>
<g>
</g>
<g>
</g>
</svg>
